HIERARCHY
ROOT Hips
{
	OFFSET 0.0000 0.0000 0.0000
	CHANNELS 6 Xposition Yposition Zposition Zrotation Xrotation Yrotation
	JOINT Ab
	{
		OFFSET -0.0000 8.1305 -0.0000
		CHANNELS 3 Zrotation Xrotation Yrotation
		JOINT Chest
		{
			OFFSET -0.0000 26.2902 -0.0000
			CHANNELS 3 Zrotation Xrotation Yrotation
			JOINT Neck
			{
				OFFSET -0.0000 26.2902 0.0000
				CHANNELS 3 Zrotation Xrotation Yrotation
				JOINT Head
				{
					OFFSET -0.0000 10.8167 0.0000
					CHANNELS 3 Zrotation Xrotation Yrotation
					End Site
					{
						OFFSET -0.0000 16.7167 0.0000
					}
				}
			}
			JOINT LeftCollar
			{
				OFFSET -0.0000 26.2902 0.0000
				CHANNELS 3 Zrotation Xrotation Yrotation
				JOINT LeftShoulder
				{
					OFFSET 19.6667 -0.0000 0.0000
					CHANNELS 3 Zrotation Xrotation Yrotation
					JOINT LeftElbow
					{
						OFFSET 27.2190 0.0000 0.0000
						CHANNELS 3 Zrotation Xrotation Yrotation
						JOINT LeftWrist
						{
							OFFSET 30.7431 0.0000 0.0000
							CHANNELS 3 Zrotation Xrotation Yrotation
							End Site
							{
								OFFSET 0.0000 -14.7500 0.0000
							}
						}
					}
				}
			}
			JOINT RightCollar
			{
				OFFSET -0.0000 26.2902 0.0000
				CHANNELS 3 Zrotation Xrotation Yrotation
				JOINT RightShoulder
				{
					OFFSET -19.6667 0.0000 0.0000
					CHANNELS 3 Zrotation Xrotation Yrotation
					JOINT RightElbow
					{
						OFFSET -27.2190 0.0000 0.0000
						CHANNELS 3 Zrotation Xrotation Yrotation
						JOINT RightWrist
						{
							OFFSET -30.7431 0.0000 0.0000
							CHANNELS 3 Zrotation Xrotation Yrotation
							End Site
							{
								OFFSET -0.0000 -14.7500 0.0000
							}
						}
					}
				}
			}
		}
	}
	JOINT LeftHip
	{
		OFFSET 11.8000 0.0000 0.0000
		CHANNELS 3 Zrotation Xrotation Yrotation
		JOINT LeftKnee
		{
			OFFSET -0.0000 -39.7832 0.0000
			CHANNELS 3 Zrotation Xrotation Yrotation
			JOINT LeftAnkle
			{
				OFFSET -0.0000 -41.7317 0.0000
				CHANNELS 3 Zrotation Xrotation Yrotation
				End Site
				{
					OFFSET -0.0000 -4.9167 16.7167
				}
			}
		}
	}
	JOINT RightHip
	{
		OFFSET -11.8000 0.0000 0.0000
		CHANNELS 3 Zrotation Xrotation Yrotation
		JOINT RightKnee
		{
			OFFSET -0.0000 -39.7832 0.0000
			CHANNELS 3 Zrotation Xrotation Yrotation
			JOINT RightAnkle
			{
				OFFSET -0.0000 -41.7317 0.0000
				CHANNELS 3 Zrotation Xrotation Yrotation
				End Site
				{
					OFFSET -0.0000 -4.9167 16.7167
				}
			}
		}
	}
}
MOTION
Frames: 9
Frame Time: 0.010000
-16.8800 96.8163 176.0435 358.6335 357.6070 179.1368 357.9274 348.4170 0.4169 2.7146 8.5940 0.4202 359.6231 357.4370 359.8567 354.6438 1.7833 359.9477 338.7604 357.4376 13.7832 317.4188 57.5495 341.0402 10.3965 357.1294 329.0922 85.9403 357.7104 348.1933 28.0331 355.8820 343.6276 45.3265 43.3873 2.0628 341.6681 354.7978 31.5331 271.0830 355.1806 11.3792 356.9218 3.1678 358.8291 357.6252 7.7007 2.1868 354.7829 350.2908 17.9788 359.0018 7.2549 10.2127 5.7734 4.1939 7.4806 349.9587 344.0808 316.1907 
-16.8950 96.8103 176.0424 358.6350 357.5719 179.1503 357.9336 348.4234 0.4160 2.7153 8.5919 0.4142 359.5993 357.4183 359.8680 354.6674 1.8266 359.9605 338.7749 357.4058 13.7859 317.3502 57.5910 341.0745 10.4995 357.0787 329.0878 85.9143 357.7150 348.2265 28.0329 355.8820 343.6181 45.3075 43.4091 2.0884 341.6601 354.7838 31.4993 271.0778 355.1907 11.3631 356.9132 3.0849 358.8334 357.6228 7.7923 2.1513 354.8609 350.2743 17.9969 358.9901 7.2180 10.2025 5.7847 4.2023 7.4795 349.9490 344.0693 316.1874 
-16.9161 96.8067 176.0280 358.6347 357.5584 179.1709 357.9334 348.4353 0.4133 2.7171 8.6018 0.4169 359.6360 357.4102 359.8664 354.6206 1.8609 359.9589 338.7769 357.4208 13.7881 317.3236 57.5862 341.0810 10.4433 357.1157 329.0837 85.9290 357.7298 348.2079 28.0263 355.8797 343.6195 45.3257 43.3563 2.0665 341.6323 354.7722 31.6026 270.9594 355.3986 10.9870 356.8972 3.0413 358.7925 357.6161 7.8644 2.1617 354.7603 350.1730 18.1469 358.9746 7.2188 10.1841 5.7884 4.1968 7.4440 349.9491 344.0705 316.2255 
-16.9340 96.7998 176.0211 358.6368 357.5236 179.1957 357.9276 348.4306 0.4117 2.7247 8.6118 0.4146 359.6835 357.4099 359.8695 354.5628 1.8823 359.9639 338.8021 357.3922 13.7970 317.2913 57.6591 341.0498 10.5307 357.0638 329.1253 85.9043 357.7024 348.2362 28.0168 355.8825 343.6103 45.3311 43.3577 2.0731 341.6414 354.7689 31.5909 270.9778 355.3707 11.0328 356.8915 2.9545 358.7688 357.6069 7.9718 2.1158 354.7536 350.1133 18.1832 358.9601 7.1916 10.1761 5.8042 4.2015 7.4643 349.8959 344.0883 316.1898 
-16.9528 96.7945 176.0143 358.6423 357.4939 179.2098 357.9331 348.4439 0.4130 2.7236 8.6030 0.4177 359.7097 357.4093 359.8805 354.5337 1.9147 359.9771 338.7995 357.4062 13.8054 317.3103 57.6770 341.0336 10.4770 357.1003 329.1114 85.9905 357.7162 348.2962 28.0117 355.8882 343.6044 45.3543 43.3642 2.0611 341.5838 354.7369 31.6239 271.4167 355.2267 10.3837 356.8880 2.8783 358.7508 357.5947 8.0682 2.1062 354.7807 350.0777 18.2032 358.9542 7.1637 10.1285 5.8053 4.2099 7.4660 349.9382 344.0266 316.2192 
-16.9807 96.7920 176.0021 358.6281 357.4668 179.2181 357.9319 348.4501 0.4165 2.7143 8.6035 0.4182 359.6943 357.4302 359.8868 354.5636 1.9168 359.9819 338.7933 357.4080 13.8271 317.3410 57.6968 340.9874 10.5007 357.0788 329.1581 85.5400 357.6714 348.0232 28.0033 355.8907 343.6059 45.3667 43.3821 2.0520 341.5522 354.7537 31.6155 271.4231 355.2350 10.3550 356.8529 2.8150 358.7075 357.5884 8.1508 2.1067 354.8211 350.0252 18.2338 358.9139 7.1411 10.0702 5.8214 4.2278 7.5034 349.9460 344.0169 316.2085 
-17.0046 96.7855 175.9965 358.6429 357.4305 179.2376 357.9439 348.4581 0.4225 2.7227 8.6076 0.4231 359.6895 357.4040 359.8771 354.5813 1.9650 359.9765 338.7964 357.4088 13.8091 317.2758 57.7069 341.0343 10.5418 357.0689 329.1353 85.5721 357.6952 348.0806 28.0010 355.8989 343.5989 45.3634 43.3616 2.0515 341.5918 354.7418 31.6241 271.3158 355.2092 10.3696 356.8535 2.7298 358.6677 357.5777 8.2488 2.0953 354.8569 349.9665 18.2452 358.9127 7.1017 10.0435 5.8272 4.2447 7.4974 350.0233 343.9604 316.2083 
-17.0338 96.7799 175.9834 358.6384 357.4098 179.2371 357.9647 348.4669 0.4280 2.6979 8.6287 0.4281 359.6786 357.4040 359.8825 354.5986 1.9768 359.9811 338.8123 357.4128 13.8199 317.2488 57.7156 341.0259 10.5634 357.0666 329.1013 85.9288 357.7486 348.3390 28.0039 355.8803 343.6005 45.3572 43.4141 2.0513 341.5583 354.7329 31.6161 271.2890 355.1843 10.3738 356.8297 2.6705 358.6580 357.5736 8.3414 2.0551 354.8688 349.9166 18.2934 358.8784 7.0906 10.0883 5.8497 4.2357 7.4316 349.9769 343.9663 316.2357 
-17.0626 96.7752 175.9685 358.6409 357.3844 179.2314 357.9755 348.4590 0.4423 2.6910 8.6721 0.4435 359.7279 357.3988 359.8987 354.5474 1.9866 359.9977 338.8035 357.4065 13.8035 317.2337 57.6784 341.0542 10.5544 357.0574 329.0827 85.9166 357.7481 348.3186 28.0085 355.9037 343.6094 45.3239 43.3773 2.0707 341.6237 354.7660 31.6373 271.2595 355.1965 10.3871 356.8165 2.6155 358.6122 357.5544 8.4222 2.0418 354.9697 349.8703 18.3400 358.8610 7.0595 10.0413 5.8497 4.2680 7.4712 349.9867 343.9335 316.2425 
